<?xml version="1.0" standalone="no"?><!DOCTYPE svg PUBLIC "-//W3C//DTD SVG 1.1//EN" "http://www.w3.org/Graphics/SVG/1.1/DTD/svg11.dtd"><svg t="1747130327047" class="icon" viewBox="0 0 1024 1024" version="1.1" xmlns="http://www.w3.org/2000/svg" p-id="3213" xmlns:xlink="http://www.w3.org/1999/xlink" width="200" height="200"><path d="M810.666667 960c-4.266667 0-8.533333-2.133333-12.8-4.266667L661.333333 857.6l-136.533333 98.133333c-6.4 4.266667-17.066667 4.266667-25.6 0L362.666667 857.6l-136.533334 98.133333c-6.4 4.266667-14.933333 4.266667-21.333333 2.133334-8.533333-4.266667-12.8-10.666667-12.8-19.2V128c0-36.266667 27.733333-64 64-64h512c36.266667 0 64 27.733333 64 64v810.666667c0 8.533333-4.266667 14.933333-10.666667 19.2-4.266667 2.133333-6.4 2.133333-10.666666 2.133333z m-448-149.333333c4.266667 0 8.533333 2.133333 12.8 4.266666l136.533333 98.133334 136.533333-98.133334c6.4-4.266667 17.066667-4.266667 25.6 0l115.2 83.2V128c0-12.8-8.533333-21.333333-21.333333-21.333333H256c-12.8 0-21.333333 8.533333-21.333333 21.333333v770.133333l115.2-83.2c4.266667-2.133333 8.533333-4.266667 12.8-4.266666z" fill="#ffffff" p-id="3214"></path><path d="M640 704H384c-12.8 0-21.333333-8.533333-21.333333-21.333333s8.533333-21.333333 21.333333-21.333334h256c12.8 0 21.333333 8.533333 21.333333 21.333334s-8.533333 21.333333-21.333333 21.333333zM512 360.533333c-6.4 0-12.8-2.133333-17.066667-8.533333l-106.666666-128c-8.533333-8.533333-6.4-23.466667 2.133333-29.866667 8.533333-8.533333 23.466667-6.4 29.866667 2.133334l89.6 108.8 89.6-108.8c8.533333-8.533333 21.333333-10.666667 29.866666-2.133334 8.533333 8.533333 10.666667 21.333333 2.133334 29.866667l-106.666667 128c0 6.4-6.4 8.533333-12.8 8.533333zM640 488.533333H384c-12.8 0-21.333333-8.533333-21.333333-21.333333s8.533333-21.333333 21.333333-21.333333h256c12.8 0 21.333333 8.533333 21.333333 21.333333s-8.533333 21.333333-21.333333 21.333333z" fill="#ffffff" p-id="3215"></path><path d="M640 360.533333H384c-12.8 0-21.333333-8.533333-21.333333-21.333333s8.533333-21.333333 21.333333-21.333333h256c12.8 0 21.333333 8.533333 21.333333 21.333333s-8.533333 21.333333-21.333333 21.333333z" fill="#ffffff" p-id="3216"></path><path d="M512 616.533333c-12.8 0-21.333333-8.533333-21.333333-21.333333v-256c0-12.8 8.533333-21.333333 21.333333-21.333333s21.333333 8.533333 21.333333 21.333333v256c0 12.8-8.533333 21.333333-21.333333 21.333333z" fill="#ffffff" p-id="3217"></path></svg>